<?xml version="1.0" encoding="UTF-8" standalone="no"?>
<svg
   enable-background="new -215.19 -86.608 1000 402.473"
   height="341.67038"
   viewBox="-215.19 -86.608 941.89899 341.67039"
   width="941.89899"
   version="1.1"
   id="svg2"
   sodipodi:docname="marvel-logo.svg"
   inkscape:version="1.3 (0e150ed, 2023-07-21)"
   xmlns:inkscape="http://www.inkscape.org/namespaces/inkscape"
   xmlns:sodipodi="http://sodipodi.sourceforge.net/DTD/sodipodi-0.dtd"
   xmlns="http://www.w3.org/2000/svg"
   xmlns:svg="http://www.w3.org/2000/svg">
  <defs
     id="defs2" />
  <sodipodi:namedview
     id="namedview2"
     pagecolor="#ffffff"
     bordercolor="#000000"
     borderopacity="0.25"
     inkscape:showpageshadow="2"
     inkscape:pageopacity="0.0"
     inkscape:pagecheckerboard="0"
     inkscape:deskcolor="#d1d1d1"
     inkscape:zoom="0.368"
     inkscape:cx="500"
     inkscape:cy="201.08696"
     inkscape:window-width="1472"
     inkscape:window-height="449"
     inkscape:window-x="0"
     inkscape:window-y="25"
     inkscape:window-maximized="0"
     inkscape:current-layer="svg2" />
  <path
     d="m -244.275,-117.00012 h 1000 v 402.473 h -1000 z"
     fill="#ed1d24"
     id="path1"
     style="stroke:none" />
  <path
     d="m 601.978,-23.208124 v -61.603 H 430.559 L 402.368,120.99188 374.472,-84.810124 h -61.817 l 6.925,54.915 c -7.14,-14.068 -32.449,-54.915 -88.146,-54.915 -0.367,-0.024 -61.901,0 -61.901,0 l -0.237,299.974004 -45.057,-299.974004 -80.958999,-0.047 -46.6120001,310.814004 0.024,-310.769004 H -80.790999 l -27.933001,174.585 -27.208,-174.583 H -213.44 V 253.09588 h 61.036 V 90.225876 l 27.764,162.866004 h 32.449001 l 27.374,-162.866004 V 253.09188 h 117.667 l 7.14,-51.995 H 107.364 l 7.116,51.995 115.521,0.071 h 0.094 v -0.071 h 0.072 0.072 v -109.685 l 14.162,-2.063 29.319,111.819 h 0.072 59.61 0.07 l -0.024,-0.071 h 0.106 0.072 l -38.475,-131.057 c 19.498,-14.422 41.513,-51.047004 35.654,-86.084004 v -0.023 c 0.07,0.474 36.316,217.380004 36.316,217.380004 l 71.065,-0.216 48.559,-306.284004 V 253.09288 h 115.236 v -60.773 h -54.7 v -77.496 h 54.7 V 53.125876 h -54.7 v -76.334 z M 67.180001,147.51288 83.938001,3.0518764 101.338,147.51288 Z M 244.599,80.808876 c -4.697,2.278 -9.595,3.417 -14.363,3.417 v -108.691 c 0.083,0 0.179,-0.022 0.297,-0.022 4.78,-0.024 40.419,1.446 40.419,53.774 0,27.373 -12.121,44.62 -26.353,51.522 m 480.36,111.464004 v 60.772 H 612.545 V -84.857124 h 60.526 V 192.27288 Z"
     fill="#ffffff"
     id="path2" />
</svg>
