<?xml version="1.0" encoding="UTF-8" standalone="no"?>
<svg
   enable-background="new -215.19 -86.608 1000 402.473"
   height="1440.0001"
   viewBox="-215.19 -86.608 1000 1440.0002"
   width="1000"
   version="1.1"
   id="svg2"
   sodipodi:docname="marvel-logo.svg"
   inkscape:export-filename="marvel-cover.svg"
   inkscape:export-xdpi="96"
   inkscape:export-ydpi="96"
   xmlns:inkscape="http://www.inkscape.org/namespaces/inkscape"
   xmlns:sodipodi="http://sodipodi.sourceforge.net/DTD/sodipodi-0.dtd"
   xmlns:xlink="http://www.w3.org/1999/xlink"
   xmlns="http://www.w3.org/2000/svg"
   xmlns:svg="http://www.w3.org/2000/svg">
  <defs
     id="defs2">
    <linearGradient
       id="linearGradient14"
       inkscape:collect="always">
      <stop
         style="stop-color:#ed1d24;stop-opacity:1;"
         offset="0"
         id="stop14" />
      <stop
         style="stop-color:#ed1d24;stop-opacity:0;"
         offset="1"
         id="stop15" />
    </linearGradient>
    <linearGradient
       inkscape:collect="always"
       xlink:href="#linearGradient14"
       id="linearGradient15"
       x1="-197.26054"
       y1="1003.392"
       x2="768.31262"
       y2="1003.392"
       gradientUnits="userSpaceOnUse"
       gradientTransform="matrix(1,0,0,0.5763175,-0.27790588,727.03242)" />
  </defs>
  <sodipodi:namedview
     id="namedview2"
     pagecolor="#ffffff"
     bordercolor="#000000"
     borderopacity="0.25"
     inkscape:showpageshadow="2"
     inkscape:pageopacity="0.0"
     inkscape:pagecheckerboard="0"
     inkscape:deskcolor="#d1d1d1" />
  <rect
     style="fill:#4d4d4d;fill-opacity:1;stroke-width:114.765;stroke-linejoin:round;stroke-opacity:0.992439"
     id="rect2"
     width="1000"
     height="1440"
     x="-215.19"
     y="-86.608009" />
  <g
     id="g2"
     transform="matrix(0.68327565,0,0,0.68327565,105.56618,93.297803)">
    <path
       d="m -215.19,-86.608 h 1000 v 402.473 h -1000 z"
       fill="#ed1d24"
       id="path1" />
    <path
       d="M 631.063,7.184 V -54.419 H 459.644 L 431.453,151.384 403.557,-54.418 H 341.74 l 6.925,54.915 c -7.14,-14.068 -32.449,-54.915 -88.146,-54.915 -0.367,-0.024 -61.901,0 -61.901,0 L 198.381,245.556 153.324,-54.418 72.365,-54.465 25.753,256.349 25.777,-54.42 h -77.483 l -27.933,174.585 -27.208,-174.583 h -77.508 v 337.906 h 61.036 v -162.87 l 27.764,162.866 h 32.449 L -35.732,120.618 V 283.484 H 81.935 l 7.14,-51.995 h 47.374 l 7.116,51.995 115.521,0.071 h 0.094 v -0.071 h 0.072 0.072 V 173.799 l 14.162,-2.063 29.319,111.819 h 0.072 59.61 0.07 l -0.024,-0.071 h 0.106 0.072 L 324.236,152.427 C 343.734,138.005 365.749,101.38 359.89,66.343 V 66.32 c 0.07,0.474 36.316,217.38 36.316,217.38 L 467.271,283.484 515.83,-22.8 v 306.285 h 115.236 v -60.773 h -54.7 v -77.496 h 54.7 V 83.518 h -54.7 V 7.184 Z M 96.265,177.905 113.023,33.444 l 17.4,144.461 z m 177.419,-66.704 c -4.697,2.278 -9.595,3.417 -14.363,3.417 V 5.927 c 0.083,0 0.179,-0.022 0.297,-0.022 4.78,-0.024 40.419,1.446 40.419,53.774 0,27.373 -12.121,44.62 -26.353,51.522 m 480.36,111.464 v 60.772 H 641.63 V -54.465 h 60.526 v 277.13 z"
       fill="#ffffff"
       id="path2" />
  </g>
  <path
     d="m -197.53845,1276.4889 h 965.57319 v 57.6318 h -965.57319 z"
     fill="#ed1d24"
     id="path1-6"
     style="fill:url(#linearGradient15);stroke-width:0.371838" />
  <path
     d="m -101.11131,1293.4973 v -6.2723 h -17.45347 l -2.87034,20.9544 -2.84031,-20.9543 h -6.29406 l 0.70509,5.5913 c -0.72698,-1.4323 -3.30388,-5.5913 -8.97482,-5.5913 -0.0374,0 -6.30261,0 -6.30261,0 l -0.0241,30.5426 -4.5876,-30.5426 h -8.24305 l -4.74593,31.6463 0.003,-31.6417 h -7.88916 l -2.84407,17.7758 -2.77025,-17.7756 h -7.89168 v 34.4048 h 6.21454 v -16.5831 l 2.82686,16.5826 h 3.30388 l 2.78716,-16.5826 v 16.5826 h 11.98057 l 0.72698,-5.294 h 4.82352 l 0.72452,5.294 11.76209,0.01 h 0.01 v -0.01 h 0.007 0.007 v -11.1679 l 1.44194,-0.21 2.98519,11.3852 h 0.007 6.06935 0.007 l -0.002,-0.01 h 0.0108 0.007 l -3.91743,-13.3439 c 1.98524,-1.4685 4.22675,-5.1976 3.6302,-8.765 v -0.01 c 0.007,0.048 3.69761,22.1331 3.69761,22.1331 l 7.23567,-0.022 4.94416,-31.1851 v 31.1852 h 11.73306 v -6.1878 h -5.56942 v -7.8905 h 5.56942 v -6.2819 h -5.56942 v -7.7721 z m -54.45187,17.3824 1.70626,-14.7087 1.77163,14.7087 z m 18.06439,-6.7916 c -0.47824,0.2319 -0.97694,0.3479 -1.46241,0.3479 v -11.0667 c 0.008,0 0.0182,0 0.0302,0 0.48669,0 4.11537,0.1473 4.11537,5.4751 0,2.7871 -1.23413,4.5432 -2.6832,5.2459 m 48.909123,11.349 v 6.1876 h -11.445723 v -34.4043 h 6.162611 v 28.2167 z"
     fill="#ffffff"
     id="path2-2"
     style="stroke-width:0.101818" />
</svg>
