<?xml version="1.0" encoding="UTF-8" standalone="no"?>
<svg
   enable-background="new -215.19 -86.608 1000 402.473"
   height="402.47299"
   viewBox="-215.19 -86.608 1000 402.473"
   width="1000"
   version="1.1"
   id="svg2"
   sodipodi:docname="marvel-logo.svg"
   inkscape:export-filename="marvel-logo-transparent.svg"
   inkscape:export-xdpi="96"
   inkscape:export-ydpi="96"
   xmlns:inkscape="http://www.inkscape.org/namespaces/inkscape"
   xmlns:sodipodi="http://sodipodi.sourceforge.net/DTD/sodipodi-0.dtd"
   xmlns="http://www.w3.org/2000/svg"
   xmlns:svg="http://www.w3.org/2000/svg">
  <defs
     id="defs2" />
  <sodipodi:namedview
     id="namedview2"
     pagecolor="#ffffff"
     bordercolor="#000000"
     borderopacity="0.25"
     inkscape:showpageshadow="2"
     inkscape:pageopacity="0.0"
     inkscape:pagecheckerboard="0"
     inkscape:deskcolor="#d1d1d1"
     showgrid="false" />
  <path
     d="M 631.063,7.184 V -54.419 H 459.644 L 431.453,151.384 403.557,-54.418 H 341.74 l 6.925,54.915 c -7.14,-14.068 -32.449,-54.915 -88.146,-54.915 -0.367,-0.024 -61.901,0 -61.901,0 L 198.381,245.556 153.324,-54.418 72.365,-54.465 25.753,256.349 25.777,-54.42 h -77.483 l -27.933,174.585 -27.208,-174.583 h -77.508 v 337.906 h 61.036 v -162.87 l 27.764,162.866 h 32.449 L -35.732,120.618 V 283.484 H 81.935 l 7.14,-51.995 h 47.374 l 7.116,51.995 115.521,0.071 h 0.094 v -0.071 h 0.072 0.072 V 173.799 l 14.162,-2.063 29.319,111.819 h 0.072 59.61 0.07 l -0.024,-0.071 h 0.106 0.072 L 324.236,152.427 C 343.734,138.005 365.749,101.38 359.89,66.343 V 66.32 c 0.07,0.474 36.316,217.38 36.316,217.38 L 467.271,283.484 515.83,-22.8 v 306.285 h 115.236 v -60.773 h -54.7 v -77.496 h 54.7 V 83.518 h -54.7 V 7.184 Z M 96.265,177.905 113.023,33.444 l 17.4,144.461 z m 177.419,-66.704 c -4.697,2.278 -9.595,3.417 -14.363,3.417 V 5.927 c 0.083,0 0.179,-0.022 0.297,-0.022 4.78,-0.024 40.419,1.446 40.419,53.774 0,27.373 -12.121,44.62 -26.353,51.522 m 480.36,111.464 v 60.772 H 641.63 V -54.465 h 60.526 v 277.13 z"
     fill="#ffffff"
     id="path2"
     style="opacity:0.063;mix-blend-mode:lighten" />
</svg>
